<?xml version="1.0" standalone="no"?>
<!DOCTYPE svg PUBLIC "-//W3C//DTD SVG 20010904//EN"
 "http://www.w3.org/TR/2001/REC-SVG-20010904/DTD/svg10.dtd">
<svg version="1.0" xmlns="http://www.w3.org/2000/svg"
 width="50.000000pt" height="50.000000pt" viewBox="0 0 50.000000 50.000000"
 preserveAspectRatio="xMidYMid meet">

<g transform="translate(0.000000,50.000000) scale(0.100000,-0.100000)"
fill="#fff" stroke="none">
<path d="M162 483 c-57 -20 -126 -91 -146 -150 -52 -154 47 -314 206 -330 102
-10 193 36 245 124 24 41 28 59 28 123 0 64 -4 82 -28 122 -63 107 -187 153
-305 111z m186 -42 c74 -38 115 -107 115 -191 0 -227 -304 -297 -407 -93 -10
19 -16 57 -16 94 0 79 32 138 98 180 38 24 56 29 109 29 43 0 76 -6 101 -19z"/>
<path d="M172 307 c-29 -29 -52 -57 -52 -63 0 -5 22 -32 49 -58 36 -35 54 -47
67 -42 15 6 12 12 -21 46 l-38 39 99 3 c80 2 99 6 99 18 0 12 -20 16 -98 20
l-98 5 35 34 c31 30 38 51 18 51 -4 0 -31 -24 -60 -53z"/>
</g>
</svg>
